#N canvas 112 35 1146 732 12;
#X obj 230 148 s bela_setGui;
#X obj 69 179 r bela_guiControl;
#N canvas 0 22 450 278 (subpatch) 0;
#X array xy 2 float 3;
#A 0 0.357143 -0.214291;
#X coords 0 1 2 -1 200 140 1 0 0;
#X restore 873 119 graph;
#X obj 639 208 metro 400;
#X obj 241 27 bng 15 250 50 0 empty empty empty 17 7 0 10 -262144 -1
-1;
#X obj 242 9 loadbang;
#X obj 639 173 loadbang;
#X text 32 51 Receive a message when mousex or mousey are received
;
#X text 528 67 Bela.data.sendBuffer(0 \, 'float' \, [...]);
#X text 32 61 on the control websocket: Bela.control.send(...);
#X obj 273 240 print guiControl: clickY;
#X msg 89 81 new control mouseX;
#X msg 237 84 new control mouseY;
#X msg 99 116 new control clickX;
#X msg 247 119 new control clickY;
#X obj 69 213 route mouseX mouseY clickX clickY;
#X msg 532 87 new array xy;
#X text 507 55 Update array xy with the input values from buffer 0:
;
#X obj 753 233 array get xy;
#X obj 709 329 tabread xy;
#X obj 792 335 tabread xy;
#X obj 261 275 print guiControl: clickX;
#X floatatom 783 282 5 0 0 0 - - -;
#X obj 712 374 change;
#X obj 792 373 change;
#X obj 710 420 s width;
#X obj 791 421 s height;
#X obj 69 290 /;
#X obj 76 251 r width;
#X obj 145 334 /;
#X obj 163 296 r height;
#X obj 145 369 print filter;
#X obj 69 405 mtof;
#X obj 69 320 * 24;
#X obj 482 560 snapshot~;
#X obj 604 467 loadbang;
#X obj 592 498 metro 200;
#X obj 833 304 + 1;
#X obj 474 593 > 0.5;
#X floatatom 486 426 5 0 0 0 - - -;
#X obj 69 349 + 48;
#X obj 69 376 +;
#X obj 474 637 change;
#X obj 454 671 sel 1;
#X obj 445 740 ==;
#X floatatom 428 704 5 0 0 0 - - -;
#X obj 483 499 adc~ 3 4;
#X obj 638 562 snapshot~;
#X obj 637 594 > 0.5;
#X obj 637 638 change;
#X obj 617 672 sel 1;
#X obj 608 741 ==;
#X floatatom 591 705 5 0 0 0 - - -;
#X obj 644 705 r filterBtn;
#X obj 604 782 s filterBtn;
#X floatatom 571 403 5 0 0 0 - - -;
#X obj 572 437 s filterBtn;
#X text 865 289 When the array changes \, get the window width and
height;
#X obj 487 460 s soundBtn;
#X obj 481 704 r soundBtn;
#X obj 441 781 s soundBtn;
#X obj 69 456 print frequency;
#X text 108 403 <-Add sounds from here \, outputs frequencies between
130-520hz aka 2 octaves;
#X text 178 336 <-Add filters from here \, outputs a float between
0-1;
#X text 674 515 Save the state of each button as 1 or 0 only when the
state changes;
#N canvas 662 179 1111 681 dist_with_tremolo 1;
#X obj 100 351 *~;
#X obj 118 298 abs~;
#X obj 100 116 *~ 10;
#X text 192 269 osc~ modulerar volymen;
#X text 172 299 abs gör att osc svänger mellan 0 och 1;
#X floatatom 102 57 5 0 0 0 - - -;
#X obj 100 89 osc~;
#X floatatom 145 242 5 0 0 0 - - -;
#X obj 154 202 hsl 128 15 0.6 40 1 0 empty empty empty -2 -8 0 10 -262144
-1 -1 0 1;
#X obj 110 154 clip~ -1 1;
#X obj 118 270 phasor~;
#X obj 311 4 exp;
#X obj 100 373 *~ 0.1;
#X text 131 351 comment;
#X obj 311 -153 inlet;
#X obj 252 -153 inlet;
#X obj 305 88 print bajs;
#X obj 341 -99 - 1;
#X obj 335 -56 * -4.3;
#X obj 46 433 outlet~;
#X obj 123 433 outlet~;
#X connect 0 0 12 0;
#X connect 1 0 0 1;
#X connect 2 0 9 0;
#X connect 5 0 6 0;
#X connect 6 0 2 0;
#X connect 7 0 10 0;
#X connect 8 0 7 0;
#X connect 9 0 0 0;
#X connect 10 0 1 0;
#X connect 11 0 7 0;
#X connect 11 0 16 0;
#X connect 12 0 19 0;
#X connect 12 0 20 0;
#X connect 14 0 17 0;
#X connect 15 0 5 0;
#X connect 17 0 18 0;
#X connect 18 0 11 0;
#X restore 291 459 pd dist_with_tremolo;
#N canvas 272 19 1446 880 granular_synth 1;
#X obj 300 46 hsl 128 15 0 1 0 0 empty empty Parameter_B -2 -8 0 10
-262144 -1 -1 0 1;
#X obj 436 54 hsl 128 15 0 1 0 0 empty empty Parameter_C -2 -8 0 10
-262144 -1 -1 0 1;
#X obj 583 54 hsl 128 15 0 1 0 0 empty empty Parameter_D -2 -8 0 10
-262144 -1 -1 0 1;
#X obj 589 75 r Channel-D;
#X obj 446 75 r Channel-C;
#X obj 305 75 r Channel-B;
#X obj 147 44 hsl 128 15 0 1 0 0 empty empty Parameter_A -2 -8 0 10
-262144 -1 -1 0 1;
#X obj 157 75 r Channel-A;
#X text 82 14 OWL Puredata Template;
#X obj 146 121 + 0;
#X obj 1153 754 vd~ b1;
#X obj 1170 801 *~;
#X obj 1025 451 phasor~;
#X obj 1150 594 +~ 1;
#X obj 1147 723 *~;
#X obj 1175 638 sig~;
#X obj 1175 664 samphold~;
#X obj 1266 694 cos~;
#X obj 1218 694 sig~ 1;
#X obj 1219 725 -~;
#X obj 912 728 vd~ b1;
#X obj 929 775 *~;
#X obj 978 749 *~ 0.5;
#X obj 910 538 *~ -1;
#X obj 867 588 +~ 1;
#X obj 906 697 *~;
#X obj 934 612 sig~;
#X obj 934 638 samphold~;
#X obj 1025 668 cos~;
#X obj 977 668 sig~ 1;
#X obj 978 699 -~;
#X floatatom 1026 395 5 0 0 0 - - -;
#X floatatom 1034 246 5 0 0 0 - - -;
#X obj 1093 392 / 44.1;
#X floatatom 1094 422 5 0 0 0 - - -;
#X obj 1132 201 t b f;
#X floatatom 1132 177 5 0 0 0 - - -;
#X obj 1016 167 t b f;
#X obj 980 125 hsl 128 15 30000 100 0 0 empty empty empty -2 -8 0 10
-262144 -1 -1 0 1;
#X obj 1149 126 hsl 128 15 36 -36 0 0 empty empty empty -2 -8 0 10
-262144 -1 -1 0 1;
#X obj 1218 775 *~ 0.5;
#X obj 1149 491 +~ 0.5;
#X obj 1151 564 *~ -1;
#X obj 1226 527 wrap~;
#X obj 706 713 vd~ b1;
#X obj 723 760 *~;
#X obj 700 682 *~;
#X obj 728 597 sig~;
#X obj 728 623 samphold~;
#X obj 819 653 cos~;
#X obj 771 653 sig~ 1;
#X obj 772 684 -~;
#X obj 501 672 vd~ b1;
#X obj 540 741 *~;
#X obj 567 693 *~ 0.5;
#X obj 499 482 *~ -1;
#X obj 495 641 *~;
#X obj 523 556 sig~;
#X obj 523 582 samphold~;
#X obj 614 612 cos~;
#X obj 566 612 sig~ 1;
#X obj 567 643 -~;
#X obj 771 734 *~ 0.5;
#X obj 702 450 +~ 0.5;
#X obj 704 523 *~ -1;
#X obj 779 486 wrap~;
#X obj 456 532 +~ 1.2;
#X obj 703 553 +~ 0.8;
#X obj 148 162 s delaytime;
#X obj 281 189 s delayfeedback;
#X obj 439 158 s grainwindow;
#X obj 965 74 r grainwindow;
#X obj 147 100 * 500;
#X obj 436 100 * 30000;
#X obj 435 121 + 100;
#X obj 578 163 s grainpitch;
#X obj 1134 70 r grainpitch;
#X obj 580 100 * 72;
#X obj 578 121 - 36;
#X obj 962 332 /;
#X obj 1023 367 *;
#X obj 972 285 t b f;
#X obj 903 256 float 44100;
#X floatatom 1156 351 5 0 0 0 - - -;
#X obj 1165 254 / 8;
#X obj 73 414 +~;
#X obj 56 509 +~;
#X obj 249 389 r delayfeedback;
#X obj 152 442 line~;
#X obj 159 378 r delaytime;
#X obj 148 585 delwrite~ b1 500;
#X obj 150 478 vd~ b1;
#X obj 553 848 *~ 0.28;
#X obj 1175 849 *~ 0.28;
#X obj 297 117 * -99;
#X obj 293 150 + -1;
#X floatatom 194 414 5 0 0 0 - - -;
#X floatatom 376 420 5 0 0 0 - - -;
#X floatatom 249 420 5 0 0 0 - - -;
#X msg 145 413 228;
#X obj 149 525 *~ -0.3;
#X obj 90 325 osc~;
#X obj 103 362 loadbang;
#X obj 90 256 inlet;
#X obj 376 263 inlet;
#X obj 376 354 * -1;
#X obj 376 326 - 2;
#X obj 859 865 *~ 0.35;
#X obj 963 862 *~ 0.35;
#X obj 964 897 outlet~;
#X obj 859 900 outlet~;
#X connect 0 0 94 0;
#X connect 1 0 73 0;
#X connect 2 0 77 0;
#X connect 3 0 77 0;
#X connect 4 0 73 0;
#X connect 5 0 94 0;
#X connect 6 0 72 0;
#X connect 7 0 72 0;
#X connect 9 0 68 0;
#X connect 10 0 11 0;
#X connect 11 0 93 0;
#X connect 11 0 108 0;
#X connect 12 0 23 0;
#X connect 12 0 27 1;
#X connect 12 0 28 0;
#X connect 12 0 41 0;
#X connect 12 0 63 0;
#X connect 12 0 55 0;
#X connect 12 0 58 1;
#X connect 12 0 59 0;
#X connect 13 0 14 0;
#X connect 14 0 10 0;
#X connect 15 0 16 0;
#X connect 16 0 14 1;
#X connect 17 0 19 1;
#X connect 18 0 19 0;
#X connect 19 0 40 0;
#X connect 20 0 21 0;
#X connect 21 0 93 0;
#X connect 21 0 108 0;
#X connect 22 0 21 1;
#X connect 23 0 24 0;
#X connect 24 0 25 0;
#X connect 25 0 20 0;
#X connect 26 0 27 0;
#X connect 27 0 25 1;
#X connect 28 0 30 1;
#X connect 29 0 30 0;
#X connect 30 0 22 0;
#X connect 31 0 12 0;
#X connect 32 0 33 0;
#X connect 32 0 81 0;
#X connect 33 0 34 0;
#X connect 34 0 26 0;
#X connect 34 0 15 0;
#X connect 34 0 57 0;
#X connect 34 0 47 0;
#X connect 35 0 32 0;
#X connect 35 1 84 0;
#X connect 36 0 35 0;
#X connect 37 0 36 0;
#X connect 37 1 32 0;
#X connect 38 0 37 0;
#X connect 39 0 36 0;
#X connect 40 0 11 1;
#X connect 41 0 43 0;
#X connect 42 0 13 0;
#X connect 43 0 16 1;
#X connect 43 0 17 0;
#X connect 43 0 42 0;
#X connect 44 0 45 0;
#X connect 45 0 92 0;
#X connect 45 0 107 0;
#X connect 46 0 44 0;
#X connect 47 0 48 0;
#X connect 48 0 46 1;
#X connect 49 0 51 1;
#X connect 50 0 51 0;
#X connect 51 0 62 0;
#X connect 52 0 53 0;
#X connect 53 0 92 0;
#X connect 53 0 107 0;
#X connect 54 0 53 1;
#X connect 55 0 66 0;
#X connect 56 0 52 0;
#X connect 57 0 58 0;
#X connect 58 0 56 1;
#X connect 59 0 61 1;
#X connect 60 0 61 0;
#X connect 61 0 54 0;
#X connect 62 0 45 1;
#X connect 63 0 65 0;
#X connect 64 0 67 0;
#X connect 65 0 48 1;
#X connect 65 0 49 0;
#X connect 65 0 64 0;
#X connect 66 0 56 0;
#X connect 67 0 46 0;
#X connect 71 0 38 0;
#X connect 72 0 9 0;
#X connect 73 0 74 0;
#X connect 74 0 70 0;
#X connect 76 0 39 0;
#X connect 77 0 78 0;
#X connect 78 0 75 0;
#X connect 79 0 80 0;
#X connect 80 0 31 0;
#X connect 81 0 79 0;
#X connect 81 0 82 0;
#X connect 81 1 79 1;
#X connect 82 0 79 0;
#X connect 84 0 80 1;
#X connect 84 0 83 0;
#X connect 85 0 86 0;
#X connect 85 0 90 0;
#X connect 86 0 90 0;
#X connect 87 0 98 0;
#X connect 88 0 91 0;
#X connect 89 0 96 0;
#X connect 91 0 86 1;
#X connect 91 0 100 0;
#X connect 94 0 95 0;
#X connect 95 0 69 0;
#X connect 97 0 100 1;
#X connect 99 0 88 0;
#X connect 100 0 90 0;
#X connect 101 0 85 0;
#X connect 102 0 99 0;
#X connect 103 0 101 0;
#X connect 104 0 106 0;
#X connect 105 0 97 0;
#X connect 106 0 105 0;
#X connect 107 0 110 0;
#X connect 108 0 109 0;
#X restore 314 510 pd granular_synth;
#X obj 193 578 dac~;
#X connect 1 0 15 0;
#X connect 3 0 22 0;
#X connect 3 0 18 0;
#X connect 4 0 11 0;
#X connect 4 0 12 0;
#X connect 4 0 13 0;
#X connect 4 0 14 0;
#X connect 4 0 16 0;
#X connect 5 0 4 0;
#X connect 6 0 3 0;
#X connect 11 0 0 0;
#X connect 12 0 0 0;
#X connect 13 0 0 0;
#X connect 14 0 0 0;
#X connect 15 0 27 0;
#X connect 15 1 29 0;
#X connect 15 2 21 0;
#X connect 15 3 10 0;
#X connect 16 0 0 0;
#X connect 19 0 23 0;
#X connect 20 0 24 0;
#X connect 22 0 19 0;
#X connect 22 0 37 0;
#X connect 23 0 25 0;
#X connect 24 0 26 0;
#X connect 27 0 33 0;
#X connect 28 0 27 1;
#X connect 29 0 31 0;
#X connect 29 0 65 1;
#X connect 30 0 29 1;
#X connect 32 0 61 0;
#X connect 32 0 65 0;
#X connect 33 0 40 0;
#X connect 34 0 38 0;
#X connect 35 0 36 0;
#X connect 36 0 34 0;
#X connect 36 0 47 0;
#X connect 37 0 20 0;
#X connect 38 0 42 0;
#X connect 39 0 58 0;
#X connect 40 0 41 0;
#X connect 41 0 32 0;
#X connect 42 0 43 0;
#X connect 43 0 45 0;
#X connect 44 0 60 0;
#X connect 45 0 44 0;
#X connect 46 0 34 0;
#X connect 46 1 47 0;
#X connect 47 0 48 0;
#X connect 48 0 49 0;
#X connect 49 0 50 0;
#X connect 50 0 52 0;
#X connect 51 0 54 0;
#X connect 52 0 51 0;
#X connect 53 0 51 1;
#X connect 55 0 56 0;
#X connect 59 0 44 1;
#X connect 66 0 67 0;
#X connect 66 1 67 1;
