#N canvas 497 55 830 811 10;
#X obj 90 341 *~;
#X obj 108 288 abs~;
#X obj 90 106 *~ 10;
#X text 182 259 osc~ modulerar volymen;
#X text 162 289 abs gör att osc svänger mellan 0 och 1;
#X floatatom 92 47 5 0 0 0 - - -;
#X obj 90 435 dac~;
#X obj 86 13 hsl 128 15 130 600 1 0 empty empty empty -2 -8 0 10 -262144
-1 -1 0 1;
#X obj 90 79 osc~;
#X floatatom 135 232 5 0 0 0 - - -;
#X obj 144 192 hsl 128 15 0.6 40 1 0 empty empty empty -2 -8 0 10 -262144
-1 -1 0 1;
#X obj 100 144 clip~ -1 1;
#X obj 108 260 phasor~;
#X obj 242 -231 cursor;
#X obj 242 -193 route motion;
#X obj 242 -157 route x y;
#X floatatom 242 -120 5 0 0 0 - - -;
#X floatatom 366 -114 5 0 0 0 - - -;
#X obj 242 -6 mtof;
#X obj 242 -43 + 48;
#X obj 242 -87 / 60;
#X obj 242 -264 tgl 15 0 empty empty empty 17 7 0 10 -262144 -1 -1
1 1;
#X obj 366 -79 - 1079;
#X obj 366 -9 exp;
#X obj 366 -44 * -0.004;
#X obj 90 363 *~ 0.1;
#X text 121 341;
#X connect 0 0 25 0;
#X connect 1 0 0 1;
#X connect 2 0 11 0;
#X connect 5 0 8 0;
#X connect 7 0 5 0;
#X connect 8 0 2 0;
#X connect 9 0 12 0;
#X connect 10 0 9 0;
#X connect 11 0 0 0;
#X connect 12 0 1 0;
#X connect 13 0 14 0;
#X connect 14 0 15 0;
#X connect 15 0 16 0;
#X connect 15 1 17 0;
#X connect 16 0 20 0;
#X connect 17 0 22 0;
#X connect 18 0 5 0;
#X connect 19 0 18 0;
#X connect 20 0 19 0;
#X connect 21 0 13 0;
#X connect 22 0 24 0;
#X connect 23 0 9 0;
#X connect 24 0 23 0;
#X connect 25 0 6 0;
#X connect 25 0 6 1;
