#N canvas 699 101 721 732 16;
#X obj 508 98 osc~;
#X obj 310 105 mtof;
#X obj 90 716 dac~;
#X obj 141 75 cursor;
#X msg 270 13 bang;
#X obj 135 125 route motion;
#X obj 139 161 route x y;
#X floatatom 106 205 5 0 0 0 - - -;
#X floatatom 433 96 5 0 0 0 - - -;
#X obj 161 40 tgl 15 0 empty empty empty 17 7 0 10 -262144 -1 -1 1
1;
#X floatatom 209 198 5 0 0 0 - - -;
#X obj 118 549 *~;
#X obj 750 371 hsl 128 15 1.27 127 1 0 empty empty empty -2 -8 0 10
-262144 -1 -1 0 1;
#X floatatom 745 464 5 0 0 0 - - -;
#X floatatom 62 350 5 0 0 0 - - -;
#X obj 76 309 mtof;
#X obj 80 272 + 48;
#X obj 79 238 / 60;
#X obj 243 226 - 1079;
#X floatatom 226 332 5 0 0 0 - - -;
#X obj 222 378 osc~ 1;
#X obj 68 487 freeverb~;
#X msg 193 414 wet \$1;
#X obj 246 287 * -0.001;
#X msg 187 458 dry \$1;
#X obj 297 432 expr 1-$f1;
#X obj 63 389 osc~;
#X obj 111 629 *~ 0.04;
#X connect 3 0 5 0;
#X connect 5 0 6 0;
#X connect 6 0 7 0;
#X connect 6 1 10 0;
#X connect 7 0 17 0;
#X connect 9 0 3 0;
#X connect 10 0 18 0;
#X connect 12 0 13 0;
#X connect 14 0 26 0;
#X connect 15 0 14 0;
#X connect 16 0 15 0;
#X connect 17 0 16 0;
#X connect 18 0 23 0;
#X connect 19 0 22 0;
#X connect 19 0 25 0;
#X connect 21 0 27 0;
#X connect 22 0 21 0;
#X connect 23 0 19 0;
#X connect 24 0 21 0;
#X connect 25 0 24 0;
#X connect 26 0 21 0;
#X connect 27 0 2 0;
#X connect 27 0 2 1;
