#N canvas 384 54 1003 899 16;
#X obj 124 579 dac~;
#X obj 109 42 cursor;
#X obj 109 92 route motion;
#X obj 109 128 route x y;
#X floatatom 47 162 5 0 0 0 - - -;
#X floatatom 171 168 5 0 0 0 - - -;
#X floatatom 47 313 5 0 0 0 - - -;
#X obj 47 276 mtof;
#X obj 47 239 + 48;
#X obj 47 195 / 60;
#X obj 131 7 tgl 15 0 empty empty empty 17 7 0 10 -262144 -1 -1 0 1
;
#X obj 145 492 *~ 0.03;
#X obj -42 366 noise~;
#X obj 144 410 bp~;
#X obj 171 203 - 1079;
#X floatatom 171 310 5 0 0 0 - - -;
#X obj 171 275 + 1;
#X floatatom -62 296 5 0 0 0 - - -;
#X obj 44 388 *~;
#X obj -62 226 * -0.0008;
#X obj -62 261 + 0.2;
#X obj 171 238 * -0.02;
#X connect 1 0 2 0;
#X connect 2 0 3 0;
#X connect 3 0 4 0;
#X connect 3 1 5 0;
#X connect 4 0 9 0;
#X connect 5 0 14 0;
#X connect 6 0 13 1;
#X connect 7 0 6 0;
#X connect 8 0 7 0;
#X connect 9 0 8 0;
#X connect 10 0 1 0;
#X connect 11 0 0 0;
#X connect 11 0 0 1;
#X connect 12 0 18 0;
#X connect 13 0 11 0;
#X connect 14 0 19 0;
#X connect 14 0 21 0;
#X connect 15 0 13 2;
#X connect 16 0 15 0;
#X connect 17 0 18 1;
#X connect 18 0 13 0;
#X connect 19 0 20 0;
#X connect 20 0 17 0;
#X connect 21 0 16 0;
